<svg width="1464" height="565" viewBox="0 0 1464 565" fill="none" xmlns="http://www.w3.org/2000/svg">
<path d="M1207.16 457.913L994.304 101.024C993.509 99.6913 994.469 98 996.022 98H1190.39C1191.08 98 1191.72 98.3576 1192.09 98.9455L1302.9 277.535C1303.27 278.133 1303.3 278.883 1302.98 279.509L1210.65 457.808C1209.93 459.201 1207.96 459.26 1207.16 457.913Z" fill="#02FFA4"/>
<path d="M1121.08 288.213L992.436 457.298C991.435 458.613 992.371 460.505 994.023 460.509L1207.77 460.997C1208.52 460.999 1209.22 460.575 1209.56 459.901L1266.51 347.446C1267.04 346.399 1266.56 345.124 1265.48 344.686L1123.41 287.569C1122.58 287.233 1121.62 287.497 1121.08 288.213Z" fill="#02FFA4"/>
<path d="M1112.5 299.5L1084 337L1208.5 460.5L1112.5 299.5Z" fill="#16AD76"/>
<path d="M176.99 216.17C170.23 216.17 163.687 214.957 157.36 212.53C151.12 210.103 145.877 206.81 141.63 202.65L145.4 196.54C149.82 200.527 154.76 203.603 160.22 205.77C165.767 207.937 171.53 209.02 177.51 209.02C185.05 209.02 190.943 207.417 195.19 204.21C199.437 200.917 201.56 196.757 201.56 191.73C201.56 188.09 200.65 185.143 198.83 182.89C197.01 180.637 194.323 178.773 190.77 177.3C187.217 175.827 182.277 174.397 175.95 173.01C165.03 170.67 157.013 167.593 151.9 163.78C146.873 159.88 144.36 154.377 144.36 147.27C144.36 142.243 145.747 137.91 148.52 134.27C151.293 130.543 155.107 127.727 159.96 125.82C164.813 123.827 170.273 122.83 176.34 122.83C181.887 122.83 187.217 123.697 192.33 125.43C197.443 127.163 202.167 129.633 206.5 132.84L202.21 138.69C198.57 136.003 194.453 133.88 189.86 132.32C185.267 130.76 180.587 129.98 175.82 129.98C168.8 129.98 163.167 131.583 158.92 134.79C154.76 137.91 152.68 142.113 152.68 147.4C152.68 152.34 154.63 156.197 158.53 158.97C162.43 161.657 169.017 163.997 178.29 165.99C185.83 167.723 191.853 169.587 196.36 171.58C200.867 173.573 204.247 176.13 206.5 179.25C208.753 182.37 209.88 186.357 209.88 191.21C209.88 196.237 208.493 200.657 205.72 204.47C202.947 208.197 199.047 211.1 194.02 213.18C189.08 215.173 183.403 216.17 176.99 216.17ZM237.812 215H229.882V124H237.812V215ZM308.894 187.31L346.984 124H354.134V215H346.204V138.56L310.324 197.19H307.334L271.454 138.43V215H263.524V124H270.804L308.894 187.31ZM412.963 124C424.49 124 433.503 126.643 440.003 131.93C446.503 137.217 449.753 144.497 449.753 153.77C449.753 163.217 446.46 170.583 439.873 175.87C433.287 181.157 424.23 183.8 412.703 183.8H387.743V215H379.813V124H412.963ZM412.833 176.78C422.107 176.78 429.257 174.83 434.283 170.93C439.397 166.943 441.953 161.223 441.953 153.77C441.953 146.49 439.397 140.9 434.283 137C429.257 133.013 422.15 131.02 412.963 131.02H387.743V176.78H412.833ZM530.198 215H467.538V124H475.338V207.85H530.198V215ZM554.306 215H546.376V124H554.306V215ZM609.138 216.17C602.378 216.17 595.835 214.957 589.508 212.53C583.268 210.103 578.025 206.81 573.778 202.65L577.548 196.54C581.968 200.527 586.908 203.603 592.368 205.77C597.915 207.937 603.678 209.02 609.658 209.02C617.198 209.02 623.092 207.417 627.338 204.21C631.585 200.917 633.708 196.757 633.708 191.73C633.708 188.09 632.798 185.143 630.978 182.89C629.158 180.637 626.472 178.773 622.918 177.3C619.365 175.827 614.425 174.397 608.098 173.01C597.178 170.67 589.162 167.593 584.048 163.78C579.022 159.88 576.508 154.377 576.508 147.27C576.508 142.243 577.895 137.91 580.668 134.27C583.442 130.543 587.255 127.727 592.108 125.82C596.962 123.827 602.422 122.83 608.488 122.83C614.035 122.83 619.365 123.697 624.478 125.43C629.592 127.163 634.315 129.633 638.648 132.84L634.358 138.69C630.718 136.003 626.602 133.88 622.008 132.32C617.415 130.76 612.735 129.98 607.968 129.98C600.948 129.98 595.315 131.583 591.068 134.79C586.908 137.91 584.828 142.113 584.828 147.4C584.828 152.34 586.778 156.197 590.678 158.97C594.578 161.657 601.165 163.997 610.438 165.99C617.978 167.723 624.002 169.587 628.508 171.58C633.015 173.573 636.395 176.13 638.648 179.25C640.902 182.37 642.028 186.357 642.028 191.21C642.028 196.237 640.642 200.657 637.868 204.47C635.095 208.197 631.195 211.1 626.168 213.18C621.228 215.173 615.552 216.17 609.138 216.17ZM669.83 172.1V207.85H731.32V215H662.03V124H730.02V131.02H669.83V164.95H722.74V172.1H669.83ZM758.827 215H750.897V124H757.657L819.277 201.22V124H827.207V215H820.707L758.827 137.39V215ZM853.095 215V124H888.325C898.118 124 906.698 125.863 914.065 129.59C921.518 133.317 927.238 138.603 931.225 145.45C935.211 152.297 937.205 160.313 937.205 169.5C937.205 178.687 935.211 186.703 931.225 193.55C927.238 200.397 921.518 205.683 914.065 209.41C906.698 213.137 898.118 215 888.325 215H853.095ZM888.065 207.85C896.298 207.85 903.491 206.29 909.645 203.17C915.798 200.05 920.521 195.63 923.815 189.91C927.195 184.103 928.885 177.3 928.885 169.5C928.885 161.613 927.195 154.81 923.815 149.09C920.521 143.283 915.798 138.82 909.645 135.7C903.491 132.58 896.255 131.02 887.935 131.02H861.025V207.85H888.065Z" fill="black"/>
<path d="M572.48 333H533.92V277H538.72V328.6H572.48V333ZM603.912 333.72C598.419 333.72 593.485 332.493 589.112 330.04C584.739 327.587 581.299 324.173 578.792 319.8C576.339 315.427 575.112 310.493 575.112 305C575.112 299.507 576.339 294.6 578.792 290.28C581.299 285.907 584.739 282.493 589.112 280.04C593.485 277.533 598.419 276.28 603.912 276.28C609.405 276.28 614.339 277.507 618.712 279.96C623.085 282.413 626.499 285.827 628.952 290.2C631.459 294.573 632.712 299.507 632.712 305C632.712 310.493 631.459 315.427 628.952 319.8C626.499 324.12 623.085 327.533 618.712 330.04C614.339 332.493 609.405 333.72 603.912 333.72ZM603.912 329.32C608.499 329.32 612.579 328.28 616.152 326.2C619.779 324.12 622.605 321.24 624.632 317.56C626.659 313.88 627.672 309.693 627.672 305C627.672 300.307 626.659 296.12 624.632 292.44C622.605 288.76 619.779 285.88 616.152 283.8C612.579 281.72 608.499 280.68 603.912 280.68C599.325 280.68 595.219 281.72 591.592 283.8C588.019 285.88 585.219 288.76 583.192 292.44C581.165 296.12 580.152 300.307 580.152 305C580.152 309.693 581.165 313.88 583.192 317.56C585.219 321.24 588.019 324.12 591.592 326.2C595.219 328.28 599.325 329.32 603.912 329.32ZM672.508 333.72C667.014 333.72 662.054 332.493 657.628 330.04C653.254 327.587 649.814 324.173 647.308 319.8C644.854 315.427 643.628 310.52 643.628 305.08C643.628 299.587 644.854 294.653 647.308 290.28C649.814 285.907 653.254 282.493 657.628 280.04C662.001 277.533 666.934 276.28 672.428 276.28C676.428 276.28 680.161 276.973 683.628 278.36C687.094 279.693 690.161 281.693 692.828 284.36L689.708 287.48C684.908 282.947 679.174 280.68 672.508 280.68C667.921 280.68 663.814 281.72 660.188 283.8C656.561 285.827 653.734 288.68 651.708 292.36C649.681 296.04 648.668 300.253 648.668 305C648.668 309.747 649.681 313.96 651.708 317.64C653.734 321.32 656.561 324.2 660.188 326.28C663.868 328.307 668.028 329.32 672.668 329.32C679.068 329.32 684.614 327.293 689.308 323.24V304.92H693.708V325.32C690.934 327.987 687.708 330.067 684.028 331.56C680.401 333 676.561 333.72 672.508 333.72ZM712.081 333H707.201V277H712.081V333ZM745.824 333.72C741.664 333.72 737.638 332.973 733.744 331.48C729.904 329.987 726.678 327.96 724.064 325.4L726.384 321.64C729.104 324.093 732.144 325.987 735.504 327.32C738.918 328.653 742.464 329.32 746.144 329.32C750.784 329.32 754.411 328.333 757.024 326.36C759.638 324.333 760.944 321.773 760.944 318.68C760.944 316.44 760.384 314.627 759.264 313.24C758.144 311.853 756.491 310.707 754.304 309.8C752.118 308.893 749.078 308.013 745.184 307.16C738.464 305.72 733.531 303.827 730.384 301.48C727.291 299.08 725.744 295.693 725.744 291.32C725.744 288.227 726.598 285.56 728.304 283.32C730.011 281.027 732.358 279.293 735.344 278.12C738.331 276.893 741.691 276.28 745.424 276.28C748.838 276.28 752.118 276.813 755.264 277.88C758.411 278.947 761.318 280.467 763.984 282.44L761.344 286.04C759.104 284.387 756.571 283.08 753.744 282.12C750.918 281.16 748.038 280.68 745.104 280.68C740.784 280.68 737.318 281.667 734.704 283.64C732.144 285.56 730.864 288.147 730.864 291.4C730.864 294.44 732.064 296.813 734.464 298.52C736.864 300.173 740.918 301.613 746.624 302.84C751.264 303.907 754.971 305.053 757.744 306.28C760.518 307.507 762.598 309.08 763.984 311C765.371 312.92 766.064 315.373 766.064 318.36C766.064 321.453 765.211 324.173 763.504 326.52C761.798 328.813 759.398 330.6 756.304 331.88C753.264 333.107 749.771 333.72 745.824 333.72ZM770.976 277H815.296V281.32H795.536V333H790.656V281.32H770.976V277ZM830.363 333H825.483V277H830.363V333ZM872.426 333.72C867.039 333.72 862.159 332.467 857.786 329.96C853.412 327.453 849.972 324.013 847.466 319.64C844.959 315.267 843.706 310.387 843.706 305C843.706 299.667 844.932 294.813 847.386 290.44C849.892 286.067 853.332 282.627 857.706 280.12C862.079 277.56 866.959 276.28 872.346 276.28C880.612 276.28 887.572 279.053 893.226 284.6L890.026 287.72C887.732 285.48 885.146 283.747 882.266 282.52C879.439 281.293 876.159 280.68 872.426 280.68C867.946 280.68 863.892 281.747 860.266 283.88C856.639 286.013 853.786 288.947 851.706 292.68C849.679 296.36 848.666 300.44 848.666 304.92C848.666 309.507 849.706 313.667 851.786 317.4C853.919 321.08 856.772 323.987 860.346 326.12C863.972 328.253 867.972 329.32 872.346 329.32C875.972 329.32 879.279 328.68 882.266 327.4C885.252 326.12 887.892 324.307 890.186 321.96L893.386 325C890.826 327.72 887.732 329.853 884.106 331.4C880.532 332.947 876.639 333.72 872.426 333.72ZM921.762 333.72C917.602 333.72 913.575 332.973 909.682 331.48C905.842 329.987 902.615 327.96 900.002 325.4L902.322 321.64C905.042 324.093 908.082 325.987 911.442 327.32C914.855 328.653 918.402 329.32 922.082 329.32C926.722 329.32 930.349 328.333 932.962 326.36C935.575 324.333 936.882 321.773 936.882 318.68C936.882 316.44 936.322 314.627 935.202 313.24C934.082 311.853 932.429 310.707 930.242 309.8C928.055 308.893 925.015 308.013 921.122 307.16C914.402 305.72 909.469 303.827 906.322 301.48C903.229 299.08 901.682 295.693 901.682 291.32C901.682 288.227 902.535 285.56 904.242 283.32C905.949 281.027 908.295 279.293 911.282 278.12C914.269 276.893 917.629 276.28 921.362 276.28C924.775 276.28 928.055 276.813 931.202 277.88C934.349 278.947 937.255 280.467 939.922 282.44L937.282 286.04C935.042 284.387 932.509 283.08 929.682 282.12C926.855 281.16 923.975 280.68 921.042 280.68C916.722 280.68 913.255 281.667 910.642 283.64C908.082 285.56 906.802 288.147 906.802 291.4C906.802 294.44 908.002 296.813 910.402 298.52C912.802 300.173 916.855 301.613 922.562 302.84C927.202 303.907 930.909 305.053 933.682 306.28C936.455 307.507 938.535 309.08 939.922 311C941.309 312.92 942.002 315.373 942.002 318.36C942.002 321.453 941.149 324.173 939.442 326.52C937.735 328.813 935.335 330.6 932.242 331.88C929.202 333.107 925.709 333.72 921.762 333.72Z" fill="black"/>
<path d="M310.67 436H276.93V387H281.13V432.15H310.67V436ZM335.831 436.63C332.098 436.63 328.738 435.79 325.751 434.11C322.765 432.43 320.431 430.12 318.751 427.18C317.071 424.193 316.231 420.857 316.231 417.17C316.231 413.437 317.071 410.1 318.751 407.16C320.431 404.173 322.765 401.84 325.751 400.16C328.738 398.48 332.098 397.64 335.831 397.64C339.565 397.64 342.925 398.48 345.911 400.16C348.945 401.84 351.301 404.173 352.981 407.16C354.708 410.1 355.571 413.413 355.571 417.1C355.571 420.787 354.708 424.123 352.981 427.11C351.301 430.097 348.945 432.43 345.911 434.11C342.925 435.79 339.565 436.63 335.831 436.63ZM335.901 432.85C338.841 432.85 341.478 432.197 343.811 430.89C346.191 429.537 348.035 427.67 349.341 425.29C350.695 422.91 351.371 420.203 351.371 417.17C351.371 414.09 350.695 411.36 349.341 408.98C348.035 406.6 346.191 404.757 343.811 403.45C341.478 402.097 338.818 401.42 335.831 401.42C332.891 401.42 330.231 402.097 327.851 403.45C325.518 404.757 323.675 406.6 322.321 408.98C321.015 411.36 320.361 414.067 320.361 417.1C320.361 420.133 321.015 422.863 322.321 425.29C323.675 427.67 325.541 429.537 327.921 430.89C330.301 432.197 332.961 432.85 335.901 432.85ZM383.397 428.09C388.063 428.09 391.68 428.907 394.247 430.54C396.86 432.173 398.167 434.367 398.167 437.12C398.167 440.62 396.417 443.397 392.917 445.45C389.463 447.55 384.633 448.6 378.427 448.6C373.2 448.6 369.093 447.737 366.107 446.01C363.12 444.283 361.627 441.903 361.627 438.87C361.627 437.283 362.187 435.837 363.307 434.53C364.473 433.177 365.967 432.057 367.787 431.17C366.48 430.657 365.453 429.887 364.707 428.86C363.96 427.833 363.587 426.667 363.587 425.36C363.587 423.913 364.007 422.653 364.847 421.58C365.687 420.507 366.853 419.69 368.347 419.13C366.9 418.057 365.78 416.75 364.987 415.21C364.24 413.623 363.867 411.85 363.867 409.89C363.867 406.11 365.22 403.123 367.927 400.93C370.68 398.737 374.39 397.64 379.057 397.64C381.81 397.64 384.12 398.06 385.987 398.9L395.717 396.8L396.557 400.23L389.907 401.21C391.307 402.143 392.38 403.357 393.127 404.85C393.92 406.343 394.317 408.023 394.317 409.89C394.317 413.623 392.963 416.61 390.257 418.85C387.55 421.043 383.863 422.14 379.197 422.14C375.977 422.14 373.247 421.65 371.007 420.67C368.767 421.51 367.647 422.723 367.647 424.31C367.647 425.523 368.09 426.457 368.977 427.11C369.863 427.763 371.03 428.09 372.477 428.09H383.397ZM379.127 401.21C375.58 401.21 372.827 401.98 370.867 403.52C368.907 405.013 367.927 407.113 367.927 409.82C367.927 412.573 368.907 414.72 370.867 416.26C372.827 417.8 375.58 418.57 379.127 418.57C382.627 418.57 385.357 417.8 387.317 416.26C389.277 414.72 390.257 412.597 390.257 409.89C390.257 407.183 389.277 405.06 387.317 403.52C385.357 401.98 382.627 401.21 379.127 401.21ZM378.637 444.82C383.537 444.82 387.34 444.167 390.047 442.86C392.753 441.6 394.107 439.757 394.107 437.33C394.107 435.51 393.08 434.133 391.027 433.2C389.02 432.267 386.15 431.8 382.417 431.8H371.427H371.147C367.553 433.713 365.757 435.907 365.757 438.38C365.757 440.527 366.877 442.137 369.117 443.21C371.403 444.283 374.577 444.82 378.637 444.82ZM410.238 436H406.108V398.34H410.238V436ZM410.308 392.67H405.968V385.25H410.308V392.67ZM434.559 436.63C431.712 436.63 428.889 436.163 426.089 435.23C423.289 434.297 420.909 433.06 418.949 431.52L420.839 428.16C422.799 429.607 424.992 430.75 427.419 431.59C429.892 432.383 432.342 432.78 434.769 432.78C438.129 432.78 440.742 432.197 442.609 431.03C444.522 429.863 445.479 428.16 445.479 425.92C445.479 423.96 444.639 422.443 442.959 421.37C441.326 420.297 438.409 419.363 434.209 418.57C430.662 417.917 427.886 417.147 425.879 416.26C423.872 415.327 422.449 414.207 421.609 412.9C420.769 411.547 420.349 409.913 420.349 408C420.349 404.827 421.562 402.33 423.989 400.51C426.416 398.643 429.776 397.71 434.069 397.71C436.542 397.71 439.086 398.083 441.699 398.83C444.312 399.53 446.482 400.487 448.209 401.7L446.389 405.13C444.756 404.01 442.819 403.123 440.579 402.47C438.339 401.817 436.099 401.49 433.859 401.49C430.919 401.49 428.609 402.05 426.929 403.17C425.296 404.29 424.479 405.807 424.479 407.72C424.479 408.933 424.806 409.96 425.459 410.8C426.112 411.593 427.209 412.317 428.749 412.97C430.336 413.577 432.529 414.16 435.329 414.72C438.922 415.467 441.746 416.33 443.799 417.31C445.852 418.29 447.322 419.457 448.209 420.81C449.096 422.163 449.539 423.82 449.539 425.78C449.539 429.14 448.186 431.8 445.479 433.76C442.819 435.673 439.179 436.63 434.559 436.63ZM481.798 434.46C480.724 435.113 479.348 435.627 477.668 436C476.034 436.42 474.494 436.63 473.048 436.63C469.781 436.63 467.168 435.673 465.208 433.76C463.248 431.847 462.268 429.21 462.268 425.85V402.05H454.568V398.34H462.338L462.618 387.98H466.328V398.34H480.188V402.05H466.328V425.15C466.328 427.53 467.004 429.42 468.358 430.82C469.711 432.22 471.461 432.92 473.608 432.92C474.774 432.92 476.058 432.757 477.458 432.43C478.858 432.103 480.001 431.683 480.888 431.17L481.798 434.46ZM494.798 436H490.668V398.34H494.798V436ZM494.868 392.67H490.528V385.25H494.868V392.67ZM524.23 436.63C520.543 436.63 517.206 435.813 514.22 434.18C511.233 432.5 508.876 430.19 507.15 427.25C505.47 424.263 504.63 420.903 504.63 417.17C504.63 413.437 505.47 410.1 507.15 407.16C508.876 404.173 511.233 401.84 514.22 400.16C517.253 398.48 520.613 397.64 524.3 397.64C527.053 397.64 529.62 398.13 532 399.11C534.426 400.09 536.573 401.583 538.44 403.59L535.57 406.04C532.49 402.96 528.686 401.42 524.16 401.42C521.22 401.42 518.583 402.073 516.25 403.38C513.963 404.687 512.143 406.553 510.79 408.98C509.483 411.36 508.83 414.09 508.83 417.17C508.83 420.25 509.483 423.003 510.79 425.43C512.143 427.81 513.986 429.653 516.32 430.96C518.7 432.267 521.36 432.92 524.3 432.92C526.54 432.92 528.57 432.547 530.39 431.8C532.256 431.007 533.983 429.77 535.57 428.09L538.51 430.61C536.69 432.57 534.543 434.063 532.07 435.09C529.643 436.117 527.03 436.63 524.23 436.63ZM559.315 436.63C556.468 436.63 553.645 436.163 550.845 435.23C548.045 434.297 545.665 433.06 543.705 431.52L545.595 428.16C547.555 429.607 549.748 430.75 552.175 431.59C554.648 432.383 557.098 432.78 559.525 432.78C562.885 432.78 565.498 432.197 567.365 431.03C569.278 429.863 570.235 428.16 570.235 425.92C570.235 423.96 569.395 422.443 567.715 421.37C566.082 420.297 563.165 419.363 558.965 418.57C555.418 417.917 552.642 417.147 550.635 416.26C548.628 415.327 547.205 414.207 546.365 412.9C545.525 411.547 545.105 409.913 545.105 408C545.105 404.827 546.318 402.33 548.745 400.51C551.172 398.643 554.532 397.71 558.825 397.71C561.298 397.71 563.842 398.083 566.455 398.83C569.068 399.53 571.238 400.487 572.965 401.7L571.145 405.13C569.512 404.01 567.575 403.123 565.335 402.47C563.095 401.817 560.855 401.49 558.615 401.49C555.675 401.49 553.365 402.05 551.685 403.17C550.052 404.29 549.235 405.807 549.235 407.72C549.235 408.933 549.562 409.96 550.215 410.8C550.868 411.593 551.965 412.317 553.505 412.97C555.092 413.577 557.285 414.16 560.085 414.72C563.678 415.467 566.502 416.33 568.555 417.31C570.608 418.29 572.078 419.457 572.965 420.81C573.852 422.163 574.295 423.82 574.295 425.78C574.295 429.14 572.942 431.8 570.235 433.76C567.575 435.673 563.935 436.63 559.315 436.63ZM620.188 436.63C616.548 436.63 613.025 435.977 609.618 434.67C606.258 433.363 603.435 431.59 601.148 429.35L603.178 426.06C605.558 428.207 608.218 429.863 611.158 431.03C614.145 432.197 617.248 432.78 620.468 432.78C624.528 432.78 627.701 431.917 629.988 430.19C632.275 428.417 633.418 426.177 633.418 423.47C633.418 421.51 632.928 419.923 631.948 418.71C630.968 417.497 629.521 416.493 627.608 415.7C625.695 414.907 623.035 414.137 619.628 413.39C613.748 412.13 609.431 410.473 606.678 408.42C603.971 406.32 602.618 403.357 602.618 399.53C602.618 396.823 603.365 394.49 604.858 392.53C606.351 390.523 608.405 389.007 611.018 387.98C613.631 386.907 616.571 386.37 619.838 386.37C622.825 386.37 625.695 386.837 628.448 387.77C631.201 388.703 633.745 390.033 636.078 391.76L633.768 394.91C631.808 393.463 629.591 392.32 627.118 391.48C624.645 390.64 622.125 390.22 619.558 390.22C615.778 390.22 612.745 391.083 610.458 392.81C608.218 394.49 607.098 396.753 607.098 399.6C607.098 402.26 608.148 404.337 610.248 405.83C612.348 407.277 615.895 408.537 620.888 409.61C624.948 410.543 628.191 411.547 630.618 412.62C633.045 413.693 634.865 415.07 636.078 416.75C637.291 418.43 637.898 420.577 637.898 423.19C637.898 425.897 637.151 428.277 635.658 430.33C634.165 432.337 632.065 433.9 629.358 435.02C626.698 436.093 623.641 436.63 620.188 436.63ZM651.888 436H647.758V398.34H651.888V436ZM651.958 392.67H647.618V385.25H651.958V392.67ZM709.949 397.64C714.196 397.64 717.533 399.063 719.959 401.91C722.433 404.71 723.669 408.56 723.669 413.46V436H719.609V413.95C719.609 410.03 718.676 406.973 716.809 404.78C714.943 402.587 712.329 401.49 708.969 401.49C706.589 401.49 704.396 402.143 702.389 403.45C700.429 404.71 698.843 406.46 697.629 408.7C696.463 410.893 695.879 413.343 695.879 416.05V436H691.749V413.95C691.749 410.03 690.816 406.973 688.949 404.78C687.083 402.587 684.469 401.49 681.109 401.49C678.776 401.49 676.606 402.143 674.599 403.45C672.593 404.71 671.006 406.46 669.839 408.7C668.673 410.893 668.089 413.343 668.089 416.05V436H663.959V398.34H668.089V405.76C669.443 403.38 671.356 401.443 673.829 399.95C676.303 398.41 679.079 397.64 682.159 397.64C685.379 397.64 688.109 398.503 690.349 400.23C692.589 401.91 694.176 404.313 695.109 407.44C696.323 404.64 698.236 402.307 700.849 400.44C703.509 398.573 706.543 397.64 709.949 397.64ZM755.073 397.64C758.48 397.64 761.56 398.48 764.313 400.16C767.113 401.84 769.307 404.173 770.893 407.16C772.527 410.1 773.343 413.437 773.343 417.17C773.343 420.95 772.55 424.333 770.963 427.32C769.377 430.26 767.183 432.547 764.383 434.18C761.583 435.813 758.457 436.63 755.003 436.63C751.55 436.63 748.423 435.86 745.623 434.32C742.87 432.78 740.723 430.61 739.183 427.81V447.97H735.053V398.34H739.183V406.39C740.77 403.637 742.963 401.49 745.763 399.95C748.563 398.41 751.667 397.64 755.073 397.64ZM754.443 432.85C757.29 432.85 759.833 432.197 762.073 430.89C764.313 429.537 766.063 427.67 767.323 425.29C768.63 422.91 769.283 420.203 769.283 417.17C769.283 414.137 768.653 411.43 767.393 409.05C766.133 406.623 764.36 404.757 762.073 403.45C759.833 402.097 757.29 401.42 754.443 401.42C751.55 401.42 748.937 402.097 746.603 403.45C744.27 404.757 742.45 406.623 741.143 409.05C739.837 411.43 739.183 414.137 739.183 417.17C739.183 420.203 739.837 422.91 741.143 425.29C742.45 427.67 744.27 429.537 746.603 430.89C748.937 432.197 751.55 432.85 754.443 432.85ZM787.66 436H783.53V384.34H787.66V436ZM804.261 436H800.131V398.34H804.261V436ZM804.331 392.67H799.991V385.25H804.331V392.67ZM824.733 398.34H838.173V402.05H824.733V436H820.602V402.05H813.533V398.34H820.602V394.91C820.602 391.41 821.559 388.68 823.473 386.72C825.386 384.713 827.976 383.71 831.243 383.71C832.689 383.71 834.066 383.873 835.373 384.2C836.726 384.48 837.869 384.853 838.803 385.32L837.893 388.89C836.119 388.003 834.113 387.56 831.873 387.56C829.586 387.56 827.813 388.213 826.553 389.52C825.339 390.78 824.733 392.717 824.733 395.33V398.34ZM848.558 436H844.428V398.34H848.558V436ZM848.628 392.67H844.288V385.25H848.628V392.67ZM862.589 418.57C862.729 421.37 863.476 423.867 864.829 426.06C866.229 428.207 868.073 429.887 870.359 431.1C872.693 432.267 875.306 432.85 878.199 432.85C883.053 432.85 886.996 431.217 890.029 427.95L892.689 430.4C890.823 432.36 888.653 433.9 886.179 435.02C883.706 436.093 880.976 436.63 877.989 436.63C874.256 436.63 870.896 435.79 867.909 434.11C864.923 432.43 862.589 430.12 860.909 427.18C859.229 424.193 858.389 420.857 858.389 417.17C858.389 413.437 859.183 410.1 860.769 407.16C862.403 404.173 864.666 401.863 867.559 400.23C870.453 398.55 873.766 397.71 877.499 397.71C880.859 397.71 883.846 398.48 886.459 400.02C889.073 401.56 891.103 403.73 892.549 406.53C893.996 409.33 894.719 412.573 894.719 416.26C894.719 416.493 894.673 417.263 894.579 418.57H862.589ZM877.429 401.42C873.323 401.42 869.916 402.68 867.209 405.2C864.549 407.72 863.033 411.01 862.659 415.07H890.729C890.449 410.777 889.119 407.44 886.739 405.06C884.359 402.633 881.256 401.42 877.429 401.42ZM935.824 384.34H939.884V436H935.824V427.81C934.284 430.563 932.091 432.733 929.244 434.32C926.444 435.86 923.317 436.63 919.864 436.63C916.457 436.63 913.354 435.79 910.554 434.11C907.801 432.43 905.607 430.12 903.974 427.18C902.387 424.193 901.594 420.833 901.594 417.1C901.594 413.32 902.387 409.96 903.974 407.02C905.561 404.08 907.754 401.793 910.554 400.16C913.354 398.48 916.481 397.64 919.934 397.64C923.387 397.64 926.514 398.433 929.314 400.02C932.114 401.56 934.284 403.753 935.824 406.6V384.34ZM920.494 432.85C923.434 432.85 926.071 432.197 928.404 430.89C930.737 429.537 932.557 427.67 933.864 425.29C935.171 422.91 935.824 420.203 935.824 417.17C935.824 414.09 935.171 411.36 933.864 408.98C932.557 406.6 930.737 404.757 928.404 403.45C926.071 402.143 923.434 401.49 920.494 401.49C917.647 401.49 915.104 402.167 912.864 403.52C910.624 404.827 908.874 406.67 907.614 409.05C906.354 411.383 905.724 414.067 905.724 417.1C905.724 420.133 906.354 422.863 907.614 425.29C908.874 427.67 910.624 429.537 912.864 430.89C915.104 432.197 917.647 432.85 920.494 432.85Z" fill="black"/>
<circle cx="1299" cy="105" r="30.25" stroke="black" stroke-width="1.5"/>
<path d="M1277.84 95.7H1293.91V97.266H1286.74V116H1284.98V97.266H1277.84V95.7ZM1307.72 109.823L1316.22 95.7H1317.81V116H1316.04V98.948L1308.04 112.027H1307.37L1299.37 98.919V116H1297.6V95.7H1299.22L1307.72 109.823Z" fill="black"/>
</svg>
