<svg width="1195" height="387" viewBox="0 0 1195 387" fill="none" xmlns="http://www.w3.org/2000/svg">
<path d="M1072.16 383.913L859.304 27.0245C858.509 25.6913 859.469 24 861.022 24H1055.39C1056.08 24 1056.72 24.3576 1057.09 24.9455L1167.9 203.535C1168.27 204.133 1168.3 204.883 1167.98 205.509L1075.65 383.808C1074.93 385.201 1072.96 385.26 1072.16 383.913Z" fill="#02FFA4"/>
<path d="M986.077 214.213L857.436 383.298C856.435 384.613 857.371 386.505 859.023 386.509L1072.77 386.997C1073.52 386.999 1074.22 386.575 1074.56 385.901L1131.51 273.446C1132.04 272.399 1131.56 271.124 1130.48 270.686L988.415 213.569C987.579 213.233 986.622 213.497 986.077 214.213Z" fill="#02FFA4"/>
<path d="M977.5 225.5L949 263L1073.5 386.5L977.5 225.5Z" fill="#16AD76"/>
<path d="M41.99 142.17C35.23 142.17 28.6867 140.957 22.36 138.53C16.12 136.103 10.8767 132.81 6.63 128.65L10.4 122.54C14.82 126.527 19.76 129.603 25.22 131.77C30.7667 133.937 36.53 135.02 42.51 135.02C50.05 135.02 55.9433 133.417 60.19 130.21C64.4367 126.917 66.56 122.757 66.56 117.73C66.56 114.09 65.65 111.143 63.83 108.89C62.01 106.637 59.3233 104.773 55.77 103.3C52.2167 101.827 47.2767 100.397 40.95 99.01C30.03 96.67 22.0133 93.5933 16.9 89.78C11.8733 85.88 9.36 80.3767 9.36 73.27C9.36 68.2433 10.7467 63.91 13.52 60.27C16.2933 56.5433 20.1067 53.7267 24.96 51.82C29.8133 49.8267 35.2733 48.83 41.34 48.83C46.8867 48.83 52.2167 49.6967 57.33 51.43C62.4433 53.1633 67.1667 55.6333 71.5 58.84L67.21 64.69C63.57 62.0033 59.4533 59.88 54.86 58.32C50.2667 56.76 45.5867 55.98 40.82 55.98C33.8 55.98 28.1667 57.5833 23.92 60.79C19.76 63.91 17.68 68.1133 17.68 73.4C17.68 78.34 19.63 82.1967 23.53 84.97C27.43 87.6567 34.0167 89.9967 43.29 91.99C50.83 93.7233 56.8533 95.5867 61.36 97.58C65.8667 99.5733 69.2467 102.13 71.5 105.25C73.7533 108.37 74.88 112.357 74.88 117.21C74.88 122.237 73.4933 126.657 70.72 130.47C67.9467 134.197 64.0467 137.1 59.02 139.18C54.08 141.173 48.4033 142.17 41.99 142.17ZM102.812 141H94.8817V50H102.812V141ZM173.894 113.31L211.984 50H219.134V141H211.204V64.56L175.324 123.19H172.334L136.454 64.43V141H128.524V50H135.804L173.894 113.31ZM277.963 50C289.49 50 298.503 52.6433 305.003 57.93C311.503 63.2167 314.753 70.4967 314.753 79.77C314.753 89.2167 311.46 96.5833 304.873 101.87C298.287 107.157 289.23 109.8 277.703 109.8H252.743V141H244.813V50H277.963ZM277.833 102.78C287.107 102.78 294.257 100.83 299.283 96.93C304.397 92.9433 306.953 87.2233 306.953 79.77C306.953 72.49 304.397 66.9 299.283 63C294.257 59.0133 287.15 57.02 277.963 57.02H252.743V102.78H277.833ZM395.198 141H332.538V50H340.338V133.85H395.198V141ZM419.306 141H411.376V50H419.306V141ZM474.138 142.17C467.378 142.17 460.835 140.957 454.508 138.53C448.268 136.103 443.025 132.81 438.778 128.65L442.548 122.54C446.968 126.527 451.908 129.603 457.368 131.77C462.915 133.937 468.678 135.02 474.658 135.02C482.198 135.02 488.092 133.417 492.338 130.21C496.585 126.917 498.708 122.757 498.708 117.73C498.708 114.09 497.798 111.143 495.978 108.89C494.158 106.637 491.472 104.773 487.918 103.3C484.365 101.827 479.425 100.397 473.098 99.01C462.178 96.67 454.162 93.5933 449.048 89.78C444.022 85.88 441.508 80.3767 441.508 73.27C441.508 68.2433 442.895 63.91 445.668 60.27C448.442 56.5433 452.255 53.7267 457.108 51.82C461.962 49.8267 467.422 48.83 473.488 48.83C479.035 48.83 484.365 49.6967 489.478 51.43C494.592 53.1633 499.315 55.6333 503.648 58.84L499.358 64.69C495.718 62.0033 491.602 59.88 487.008 58.32C482.415 56.76 477.735 55.98 472.968 55.98C465.948 55.98 460.315 57.5833 456.068 60.79C451.908 63.91 449.828 68.1133 449.828 73.4C449.828 78.34 451.778 82.1967 455.678 84.97C459.578 87.6567 466.165 89.9967 475.438 91.99C482.978 93.7233 489.002 95.5867 493.508 97.58C498.015 99.5733 501.395 102.13 503.648 105.25C505.902 108.37 507.028 112.357 507.028 117.21C507.028 122.237 505.642 126.657 502.868 130.47C500.095 134.197 496.195 137.1 491.168 139.18C486.228 141.173 480.552 142.17 474.138 142.17ZM534.83 98.1V133.85H596.32V141H527.03V50H595.02V57.02H534.83V90.95H587.74V98.1H534.83ZM623.827 141H615.897V50H622.657L684.277 127.22V50H692.207V141H685.707L623.827 63.39V141ZM718.095 141V50H753.325C763.118 50 771.698 51.8633 779.065 55.59C786.518 59.3167 792.238 64.6033 796.225 71.45C800.211 78.2967 802.205 86.3133 802.205 95.5C802.205 104.687 800.211 112.703 796.225 119.55C792.238 126.397 786.518 131.683 779.065 135.41C771.698 139.137 763.118 141 753.325 141H718.095ZM753.065 133.85C761.298 133.85 768.491 132.29 774.645 129.17C780.798 126.05 785.521 121.63 788.815 115.91C792.195 110.103 793.885 103.3 793.885 95.5C793.885 87.6133 792.195 80.81 788.815 75.09C785.521 69.2833 780.798 64.82 774.645 61.7C768.491 58.58 761.255 57.02 752.935 57.02H726.025V133.85H753.065Z" fill="white"/>
<path d="M437.48 259H398.92V203H403.72V254.6H437.48V259ZM468.912 259.72C463.419 259.72 458.485 258.493 454.112 256.04C449.739 253.587 446.299 250.173 443.792 245.8C441.339 241.427 440.112 236.493 440.112 231C440.112 225.507 441.339 220.6 443.792 216.28C446.299 211.907 449.739 208.493 454.112 206.04C458.485 203.533 463.419 202.28 468.912 202.28C474.405 202.28 479.339 203.507 483.712 205.96C488.085 208.413 491.499 211.827 493.952 216.2C496.459 220.573 497.712 225.507 497.712 231C497.712 236.493 496.459 241.427 493.952 245.8C491.499 250.12 488.085 253.533 483.712 256.04C479.339 258.493 474.405 259.72 468.912 259.72ZM468.912 255.32C473.499 255.32 477.579 254.28 481.152 252.2C484.779 250.12 487.605 247.24 489.632 243.56C491.659 239.88 492.672 235.693 492.672 231C492.672 226.307 491.659 222.12 489.632 218.44C487.605 214.76 484.779 211.88 481.152 209.8C477.579 207.72 473.499 206.68 468.912 206.68C464.325 206.68 460.219 207.72 456.592 209.8C453.019 211.88 450.219 214.76 448.192 218.44C446.165 222.12 445.152 226.307 445.152 231C445.152 235.693 446.165 239.88 448.192 243.56C450.219 247.24 453.019 250.12 456.592 252.2C460.219 254.28 464.325 255.32 468.912 255.32ZM537.508 259.72C532.014 259.72 527.054 258.493 522.628 256.04C518.254 253.587 514.814 250.173 512.308 245.8C509.854 241.427 508.628 236.52 508.628 231.08C508.628 225.587 509.854 220.653 512.308 216.28C514.814 211.907 518.254 208.493 522.628 206.04C527.001 203.533 531.934 202.28 537.428 202.28C541.428 202.28 545.161 202.973 548.628 204.36C552.094 205.693 555.161 207.693 557.828 210.36L554.708 213.48C549.908 208.947 544.174 206.68 537.508 206.68C532.921 206.68 528.814 207.72 525.188 209.8C521.561 211.827 518.734 214.68 516.708 218.36C514.681 222.04 513.668 226.253 513.668 231C513.668 235.747 514.681 239.96 516.708 243.64C518.734 247.32 521.561 250.2 525.188 252.28C528.868 254.307 533.028 255.32 537.668 255.32C544.068 255.32 549.614 253.293 554.308 249.24V230.92H558.708V251.32C555.934 253.987 552.708 256.067 549.028 257.56C545.401 259 541.561 259.72 537.508 259.72ZM577.081 259H572.201V203H577.081V259ZM610.824 259.72C606.664 259.72 602.638 258.973 598.744 257.48C594.904 255.987 591.678 253.96 589.064 251.4L591.384 247.64C594.104 250.093 597.144 251.987 600.504 253.32C603.918 254.653 607.464 255.32 611.144 255.32C615.784 255.32 619.411 254.333 622.024 252.36C624.638 250.333 625.944 247.773 625.944 244.68C625.944 242.44 625.384 240.627 624.264 239.24C623.144 237.853 621.491 236.707 619.304 235.8C617.118 234.893 614.078 234.013 610.184 233.16C603.464 231.72 598.531 229.827 595.384 227.48C592.291 225.08 590.744 221.693 590.744 217.32C590.744 214.227 591.598 211.56 593.304 209.32C595.011 207.027 597.358 205.293 600.344 204.12C603.331 202.893 606.691 202.28 610.424 202.28C613.838 202.28 617.118 202.813 620.264 203.88C623.411 204.947 626.318 206.467 628.984 208.44L626.344 212.04C624.104 210.387 621.571 209.08 618.744 208.12C615.918 207.16 613.038 206.68 610.104 206.68C605.784 206.68 602.318 207.667 599.704 209.64C597.144 211.56 595.864 214.147 595.864 217.4C595.864 220.44 597.064 222.813 599.464 224.52C601.864 226.173 605.918 227.613 611.624 228.84C616.264 229.907 619.971 231.053 622.744 232.28C625.518 233.507 627.598 235.08 628.984 237C630.371 238.92 631.064 241.373 631.064 244.36C631.064 247.453 630.211 250.173 628.504 252.52C626.798 254.813 624.398 256.6 621.304 257.88C618.264 259.107 614.771 259.72 610.824 259.72ZM635.976 203H680.296V207.32H660.536V259H655.656V207.32H635.976V203ZM695.363 259H690.483V203H695.363V259ZM737.426 259.72C732.039 259.72 727.159 258.467 722.786 255.96C718.412 253.453 714.972 250.013 712.466 245.64C709.959 241.267 708.706 236.387 708.706 231C708.706 225.667 709.932 220.813 712.386 216.44C714.892 212.067 718.332 208.627 722.706 206.12C727.079 203.56 731.959 202.28 737.346 202.28C745.612 202.28 752.572 205.053 758.226 210.6L755.026 213.72C752.732 211.48 750.146 209.747 747.266 208.52C744.439 207.293 741.159 206.68 737.426 206.68C732.946 206.68 728.892 207.747 725.266 209.88C721.639 212.013 718.786 214.947 716.706 218.68C714.679 222.36 713.666 226.44 713.666 230.92C713.666 235.507 714.706 239.667 716.786 243.4C718.919 247.08 721.772 249.987 725.346 252.12C728.972 254.253 732.972 255.32 737.346 255.32C740.972 255.32 744.279 254.68 747.266 253.4C750.252 252.12 752.892 250.307 755.186 247.96L758.386 251C755.826 253.72 752.732 255.853 749.106 257.4C745.532 258.947 741.639 259.72 737.426 259.72ZM786.762 259.72C782.602 259.72 778.575 258.973 774.682 257.48C770.842 255.987 767.615 253.96 765.002 251.4L767.322 247.64C770.042 250.093 773.082 251.987 776.442 253.32C779.855 254.653 783.402 255.32 787.082 255.32C791.722 255.32 795.349 254.333 797.962 252.36C800.575 250.333 801.882 247.773 801.882 244.68C801.882 242.44 801.322 240.627 800.202 239.24C799.082 237.853 797.429 236.707 795.242 235.8C793.055 234.893 790.015 234.013 786.122 233.16C779.402 231.72 774.469 229.827 771.322 227.48C768.229 225.08 766.682 221.693 766.682 217.32C766.682 214.227 767.535 211.56 769.242 209.32C770.949 207.027 773.295 205.293 776.282 204.12C779.269 202.893 782.629 202.28 786.362 202.28C789.775 202.28 793.055 202.813 796.202 203.88C799.349 204.947 802.255 206.467 804.922 208.44L802.282 212.04C800.042 210.387 797.509 209.08 794.682 208.12C791.855 207.16 788.975 206.68 786.042 206.68C781.722 206.68 778.255 207.667 775.642 209.64C773.082 211.56 771.802 214.147 771.802 217.4C771.802 220.44 773.002 222.813 775.402 224.52C777.802 226.173 781.855 227.613 787.562 228.84C792.202 229.907 795.909 231.053 798.682 232.28C801.455 233.507 803.535 235.08 804.922 237C806.309 238.92 807.002 241.373 807.002 244.36C807.002 247.453 806.149 250.173 804.442 252.52C802.735 254.813 800.335 256.6 797.242 257.88C794.202 259.107 790.709 259.72 786.762 259.72Z" fill="white"/>
<path d="M175.67 362H141.93V313H146.13V358.15H175.67V362ZM200.831 362.63C197.098 362.63 193.738 361.79 190.751 360.11C187.765 358.43 185.431 356.12 183.751 353.18C182.071 350.193 181.231 346.857 181.231 343.17C181.231 339.437 182.071 336.1 183.751 333.16C185.431 330.173 187.765 327.84 190.751 326.16C193.738 324.48 197.098 323.64 200.831 323.64C204.565 323.64 207.925 324.48 210.911 326.16C213.945 327.84 216.301 330.173 217.981 333.16C219.708 336.1 220.571 339.413 220.571 343.1C220.571 346.787 219.708 350.123 217.981 353.11C216.301 356.097 213.945 358.43 210.911 360.11C207.925 361.79 204.565 362.63 200.831 362.63ZM200.901 358.85C203.841 358.85 206.478 358.197 208.811 356.89C211.191 355.537 213.035 353.67 214.341 351.29C215.695 348.91 216.371 346.203 216.371 343.17C216.371 340.09 215.695 337.36 214.341 334.98C213.035 332.6 211.191 330.757 208.811 329.45C206.478 328.097 203.818 327.42 200.831 327.42C197.891 327.42 195.231 328.097 192.851 329.45C190.518 330.757 188.675 332.6 187.321 334.98C186.015 337.36 185.361 340.067 185.361 343.1C185.361 346.133 186.015 348.863 187.321 351.29C188.675 353.67 190.541 355.537 192.921 356.89C195.301 358.197 197.961 358.85 200.901 358.85ZM248.397 354.09C253.063 354.09 256.68 354.907 259.247 356.54C261.86 358.173 263.167 360.367 263.167 363.12C263.167 366.62 261.417 369.397 257.917 371.45C254.463 373.55 249.633 374.6 243.427 374.6C238.2 374.6 234.093 373.737 231.107 372.01C228.12 370.283 226.627 367.903 226.627 364.87C226.627 363.283 227.187 361.837 228.307 360.53C229.473 359.177 230.967 358.057 232.787 357.17C231.48 356.657 230.453 355.887 229.707 354.86C228.96 353.833 228.587 352.667 228.587 351.36C228.587 349.913 229.007 348.653 229.847 347.58C230.687 346.507 231.853 345.69 233.347 345.13C231.9 344.057 230.78 342.75 229.987 341.21C229.24 339.623 228.867 337.85 228.867 335.89C228.867 332.11 230.22 329.123 232.927 326.93C235.68 324.737 239.39 323.64 244.057 323.64C246.81 323.64 249.12 324.06 250.987 324.9L260.717 322.8L261.557 326.23L254.907 327.21C256.307 328.143 257.38 329.357 258.127 330.85C258.92 332.343 259.317 334.023 259.317 335.89C259.317 339.623 257.963 342.61 255.257 344.85C252.55 347.043 248.863 348.14 244.197 348.14C240.977 348.14 238.247 347.65 236.007 346.67C233.767 347.51 232.647 348.723 232.647 350.31C232.647 351.523 233.09 352.457 233.977 353.11C234.863 353.763 236.03 354.09 237.477 354.09H248.397ZM244.127 327.21C240.58 327.21 237.827 327.98 235.867 329.52C233.907 331.013 232.927 333.113 232.927 335.82C232.927 338.573 233.907 340.72 235.867 342.26C237.827 343.8 240.58 344.57 244.127 344.57C247.627 344.57 250.357 343.8 252.317 342.26C254.277 340.72 255.257 338.597 255.257 335.89C255.257 333.183 254.277 331.06 252.317 329.52C250.357 327.98 247.627 327.21 244.127 327.21ZM243.637 370.82C248.537 370.82 252.34 370.167 255.047 368.86C257.753 367.6 259.107 365.757 259.107 363.33C259.107 361.51 258.08 360.133 256.027 359.2C254.02 358.267 251.15 357.8 247.417 357.8H236.427H236.147C232.553 359.713 230.757 361.907 230.757 364.38C230.757 366.527 231.877 368.137 234.117 369.21C236.403 370.283 239.577 370.82 243.637 370.82ZM275.238 362H271.108V324.34H275.238V362ZM275.308 318.67H270.968V311.25H275.308V318.67ZM299.559 362.63C296.712 362.63 293.889 362.163 291.089 361.23C288.289 360.297 285.909 359.06 283.949 357.52L285.839 354.16C287.799 355.607 289.992 356.75 292.419 357.59C294.892 358.383 297.342 358.78 299.769 358.78C303.129 358.78 305.742 358.197 307.609 357.03C309.522 355.863 310.479 354.16 310.479 351.92C310.479 349.96 309.639 348.443 307.959 347.37C306.326 346.297 303.409 345.363 299.209 344.57C295.662 343.917 292.886 343.147 290.879 342.26C288.872 341.327 287.449 340.207 286.609 338.9C285.769 337.547 285.349 335.913 285.349 334C285.349 330.827 286.562 328.33 288.989 326.51C291.416 324.643 294.776 323.71 299.069 323.71C301.542 323.71 304.086 324.083 306.699 324.83C309.312 325.53 311.482 326.487 313.209 327.7L311.389 331.13C309.756 330.01 307.819 329.123 305.579 328.47C303.339 327.817 301.099 327.49 298.859 327.49C295.919 327.49 293.609 328.05 291.929 329.17C290.296 330.29 289.479 331.807 289.479 333.72C289.479 334.933 289.806 335.96 290.459 336.8C291.112 337.593 292.209 338.317 293.749 338.97C295.336 339.577 297.529 340.16 300.329 340.72C303.922 341.467 306.746 342.33 308.799 343.31C310.852 344.29 312.322 345.457 313.209 346.81C314.096 348.163 314.539 349.82 314.539 351.78C314.539 355.14 313.186 357.8 310.479 359.76C307.819 361.673 304.179 362.63 299.559 362.63ZM346.798 360.46C345.724 361.113 344.348 361.627 342.668 362C341.034 362.42 339.494 362.63 338.048 362.63C334.781 362.63 332.168 361.673 330.208 359.76C328.248 357.847 327.268 355.21 327.268 351.85V328.05H319.568V324.34H327.338L327.618 313.98H331.328V324.34H345.188V328.05H331.328V351.15C331.328 353.53 332.004 355.42 333.358 356.82C334.711 358.22 336.461 358.92 338.608 358.92C339.774 358.92 341.058 358.757 342.458 358.43C343.858 358.103 345.001 357.683 345.888 357.17L346.798 360.46ZM359.798 362H355.668V324.34H359.798V362ZM359.868 318.67H355.528V311.25H359.868V318.67ZM389.23 362.63C385.543 362.63 382.206 361.813 379.22 360.18C376.233 358.5 373.876 356.19 372.15 353.25C370.47 350.263 369.63 346.903 369.63 343.17C369.63 339.437 370.47 336.1 372.15 333.16C373.876 330.173 376.233 327.84 379.22 326.16C382.253 324.48 385.613 323.64 389.3 323.64C392.053 323.64 394.62 324.13 397 325.11C399.426 326.09 401.573 327.583 403.44 329.59L400.57 332.04C397.49 328.96 393.686 327.42 389.16 327.42C386.22 327.42 383.583 328.073 381.25 329.38C378.963 330.687 377.143 332.553 375.79 334.98C374.483 337.36 373.83 340.09 373.83 343.17C373.83 346.25 374.483 349.003 375.79 351.43C377.143 353.81 378.986 355.653 381.32 356.96C383.7 358.267 386.36 358.92 389.3 358.92C391.54 358.92 393.57 358.547 395.39 357.8C397.256 357.007 398.983 355.77 400.57 354.09L403.51 356.61C401.69 358.57 399.543 360.063 397.07 361.09C394.643 362.117 392.03 362.63 389.23 362.63ZM424.315 362.63C421.468 362.63 418.645 362.163 415.845 361.23C413.045 360.297 410.665 359.06 408.705 357.52L410.595 354.16C412.555 355.607 414.748 356.75 417.175 357.59C419.648 358.383 422.098 358.78 424.525 358.78C427.885 358.78 430.498 358.197 432.365 357.03C434.278 355.863 435.235 354.16 435.235 351.92C435.235 349.96 434.395 348.443 432.715 347.37C431.082 346.297 428.165 345.363 423.965 344.57C420.418 343.917 417.642 343.147 415.635 342.26C413.628 341.327 412.205 340.207 411.365 338.9C410.525 337.547 410.105 335.913 410.105 334C410.105 330.827 411.318 328.33 413.745 326.51C416.172 324.643 419.532 323.71 423.825 323.71C426.298 323.71 428.842 324.083 431.455 324.83C434.068 325.53 436.238 326.487 437.965 327.7L436.145 331.13C434.512 330.01 432.575 329.123 430.335 328.47C428.095 327.817 425.855 327.49 423.615 327.49C420.675 327.49 418.365 328.05 416.685 329.17C415.052 330.29 414.235 331.807 414.235 333.72C414.235 334.933 414.562 335.96 415.215 336.8C415.868 337.593 416.965 338.317 418.505 338.97C420.092 339.577 422.285 340.16 425.085 340.72C428.678 341.467 431.502 342.33 433.555 343.31C435.608 344.29 437.078 345.457 437.965 346.81C438.852 348.163 439.295 349.82 439.295 351.78C439.295 355.14 437.942 357.8 435.235 359.76C432.575 361.673 428.935 362.63 424.315 362.63ZM485.188 362.63C481.548 362.63 478.025 361.977 474.618 360.67C471.258 359.363 468.435 357.59 466.148 355.35L468.178 352.06C470.558 354.207 473.218 355.863 476.158 357.03C479.145 358.197 482.248 358.78 485.468 358.78C489.528 358.78 492.701 357.917 494.988 356.19C497.275 354.417 498.418 352.177 498.418 349.47C498.418 347.51 497.928 345.923 496.948 344.71C495.968 343.497 494.521 342.493 492.608 341.7C490.695 340.907 488.035 340.137 484.628 339.39C478.748 338.13 474.431 336.473 471.678 334.42C468.971 332.32 467.618 329.357 467.618 325.53C467.618 322.823 468.365 320.49 469.858 318.53C471.351 316.523 473.405 315.007 476.018 313.98C478.631 312.907 481.571 312.37 484.838 312.37C487.825 312.37 490.695 312.837 493.448 313.77C496.201 314.703 498.745 316.033 501.078 317.76L498.768 320.91C496.808 319.463 494.591 318.32 492.118 317.48C489.645 316.64 487.125 316.22 484.558 316.22C480.778 316.22 477.745 317.083 475.458 318.81C473.218 320.49 472.098 322.753 472.098 325.6C472.098 328.26 473.148 330.337 475.248 331.83C477.348 333.277 480.895 334.537 485.888 335.61C489.948 336.543 493.191 337.547 495.618 338.62C498.045 339.693 499.865 341.07 501.078 342.75C502.291 344.43 502.898 346.577 502.898 349.19C502.898 351.897 502.151 354.277 500.658 356.33C499.165 358.337 497.065 359.9 494.358 361.02C491.698 362.093 488.641 362.63 485.188 362.63ZM516.888 362H512.758V324.34H516.888V362ZM516.958 318.67H512.618V311.25H516.958V318.67ZM574.949 323.64C579.196 323.64 582.533 325.063 584.959 327.91C587.433 330.71 588.669 334.56 588.669 339.46V362H584.609V339.95C584.609 336.03 583.676 332.973 581.809 330.78C579.943 328.587 577.329 327.49 573.969 327.49C571.589 327.49 569.396 328.143 567.389 329.45C565.429 330.71 563.843 332.46 562.629 334.7C561.463 336.893 560.879 339.343 560.879 342.05V362H556.749V339.95C556.749 336.03 555.816 332.973 553.949 330.78C552.083 328.587 549.469 327.49 546.109 327.49C543.776 327.49 541.606 328.143 539.599 329.45C537.593 330.71 536.006 332.46 534.839 334.7C533.673 336.893 533.089 339.343 533.089 342.05V362H528.959V324.34H533.089V331.76C534.443 329.38 536.356 327.443 538.829 325.95C541.303 324.41 544.079 323.64 547.159 323.64C550.379 323.64 553.109 324.503 555.349 326.23C557.589 327.91 559.176 330.313 560.109 333.44C561.323 330.64 563.236 328.307 565.849 326.44C568.509 324.573 571.543 323.64 574.949 323.64ZM620.073 323.64C623.48 323.64 626.56 324.48 629.313 326.16C632.113 327.84 634.307 330.173 635.893 333.16C637.527 336.1 638.343 339.437 638.343 343.17C638.343 346.95 637.55 350.333 635.963 353.32C634.377 356.26 632.183 358.547 629.383 360.18C626.583 361.813 623.457 362.63 620.003 362.63C616.55 362.63 613.423 361.86 610.623 360.32C607.87 358.78 605.723 356.61 604.183 353.81V373.97H600.053V324.34H604.183V332.39C605.77 329.637 607.963 327.49 610.763 325.95C613.563 324.41 616.667 323.64 620.073 323.64ZM619.443 358.85C622.29 358.85 624.833 358.197 627.073 356.89C629.313 355.537 631.063 353.67 632.323 351.29C633.63 348.91 634.283 346.203 634.283 343.17C634.283 340.137 633.653 337.43 632.393 335.05C631.133 332.623 629.36 330.757 627.073 329.45C624.833 328.097 622.29 327.42 619.443 327.42C616.55 327.42 613.937 328.097 611.603 329.45C609.27 330.757 607.45 332.623 606.143 335.05C604.837 337.43 604.183 340.137 604.183 343.17C604.183 346.203 604.837 348.91 606.143 351.29C607.45 353.67 609.27 355.537 611.603 356.89C613.937 358.197 616.55 358.85 619.443 358.85ZM652.66 362H648.53V310.34H652.66V362ZM669.261 362H665.131V324.34H669.261V362ZM669.331 318.67H664.991V311.25H669.331V318.67ZM689.733 324.34H703.173V328.05H689.733V362H685.602V328.05H678.533V324.34H685.602V320.91C685.602 317.41 686.559 314.68 688.473 312.72C690.386 310.713 692.976 309.71 696.243 309.71C697.689 309.71 699.066 309.873 700.373 310.2C701.726 310.48 702.869 310.853 703.803 311.32L702.893 314.89C701.119 314.003 699.113 313.56 696.873 313.56C694.586 313.56 692.813 314.213 691.553 315.52C690.339 316.78 689.733 318.717 689.733 321.33V324.34ZM713.558 362H709.428V324.34H713.558V362ZM713.628 318.67H709.288V311.25H713.628V318.67ZM727.589 344.57C727.729 347.37 728.476 349.867 729.829 352.06C731.229 354.207 733.073 355.887 735.359 357.1C737.693 358.267 740.306 358.85 743.199 358.85C748.053 358.85 751.996 357.217 755.029 353.95L757.689 356.4C755.823 358.36 753.653 359.9 751.179 361.02C748.706 362.093 745.976 362.63 742.989 362.63C739.256 362.63 735.896 361.79 732.909 360.11C729.923 358.43 727.589 356.12 725.909 353.18C724.229 350.193 723.389 346.857 723.389 343.17C723.389 339.437 724.183 336.1 725.769 333.16C727.403 330.173 729.666 327.863 732.559 326.23C735.453 324.55 738.766 323.71 742.499 323.71C745.859 323.71 748.846 324.48 751.459 326.02C754.073 327.56 756.103 329.73 757.549 332.53C758.996 335.33 759.719 338.573 759.719 342.26C759.719 342.493 759.673 343.263 759.579 344.57H727.589ZM742.429 327.42C738.323 327.42 734.916 328.68 732.209 331.2C729.549 333.72 728.033 337.01 727.659 341.07H755.729C755.449 336.777 754.119 333.44 751.739 331.06C749.359 328.633 746.256 327.42 742.429 327.42ZM800.824 310.34H804.884V362H800.824V353.81C799.284 356.563 797.091 358.733 794.244 360.32C791.444 361.86 788.317 362.63 784.864 362.63C781.457 362.63 778.354 361.79 775.554 360.11C772.801 358.43 770.607 356.12 768.974 353.18C767.387 350.193 766.594 346.833 766.594 343.1C766.594 339.32 767.387 335.96 768.974 333.02C770.561 330.08 772.754 327.793 775.554 326.16C778.354 324.48 781.481 323.64 784.934 323.64C788.387 323.64 791.514 324.433 794.314 326.02C797.114 327.56 799.284 329.753 800.824 332.6V310.34ZM785.494 358.85C788.434 358.85 791.071 358.197 793.404 356.89C795.737 355.537 797.557 353.67 798.864 351.29C800.171 348.91 800.824 346.203 800.824 343.17C800.824 340.09 800.171 337.36 798.864 334.98C797.557 332.6 795.737 330.757 793.404 329.45C791.071 328.143 788.434 327.49 785.494 327.49C782.647 327.49 780.104 328.167 777.864 329.52C775.624 330.827 773.874 332.67 772.614 335.05C771.354 337.383 770.724 340.067 770.724 343.1C770.724 346.133 771.354 348.863 772.614 351.29C773.874 353.67 775.624 355.537 777.864 356.89C780.104 358.197 782.647 358.85 785.494 358.85Z" fill="white"/>
<circle cx="1164" cy="31" r="30.25" stroke="white" stroke-width="1.5"/>
<path d="M1142.84 21.7H1158.91V23.266H1151.74V42H1149.98V23.266H1142.84V21.7ZM1172.72 35.823L1181.22 21.7H1182.81V42H1181.04V24.948L1173.04 38.027H1172.37L1164.37 24.919V42H1162.6V21.7H1164.22L1172.72 35.823Z" fill="white"/>
</svg>
